<svg width="31" height="31" viewBox="0 0 31 31" fill="none" xmlns="http://www.w3.org/2000/svg">
<path d="M21.6363 2.54541H8.90908C5.39454 2.54541 2.54544 5.39451 2.54544 8.90905V21.6363C2.54544 25.1509 5.39454 28 8.90908 28H21.6363C25.1509 28 28 25.1509 28 21.6363V8.90905C28 5.39451 25.1509 2.54541 21.6363 2.54541Z" stroke="black" stroke-width="2" stroke-linecap="round" stroke-linejoin="round"/>
<path d="M20.3636 14.4711C20.5207 15.5303 20.3398 16.6121 19.8466 17.5626C19.3534 18.5131 18.5731 19.2838 17.6166 19.7652C16.6601 20.2467 15.5762 20.4142 14.519 20.2441C13.4618 20.074 12.4851 19.5749 11.728 18.8177C10.9708 18.0605 10.4717 17.0839 10.3015 16.0267C10.1314 14.9695 10.299 13.8855 10.7804 12.929C11.2618 11.9726 12.0326 11.1922 12.9831 10.6991C13.9335 10.2059 15.0153 10.025 16.0745 10.182C17.155 10.3422 18.1553 10.8457 18.9276 11.6181C19.7 12.3904 20.2034 13.3907 20.3636 14.4711Z" stroke="black" stroke-width="2" stroke-linecap="round" stroke-linejoin="round"/>
<path d="M22.2727 8.27295H22.2855" stroke="black" stroke-width="2" stroke-linecap="round" stroke-linejoin="round"/>
</svg>
