<svg width="32" height="31" viewBox="0 0 32 31" fill="none" xmlns="http://www.w3.org/2000/svg">
<path d="M21.1818 10.1816C23.2071 10.1816 25.1495 10.9862 26.5816 12.4183C28.0137 13.8504 28.8182 15.7927 28.8182 17.818V26.7271H23.7273V17.818C23.7273 17.1429 23.4591 16.4955 22.9817 16.0181C22.5044 15.5407 21.8569 15.2725 21.1818 15.2725C20.5067 15.2725 19.8593 15.5407 19.3819 16.0181C18.9046 16.4955 18.6364 17.1429 18.6364 17.818V26.7271H13.5455V17.818C13.5455 15.7927 14.35 13.8504 15.7821 12.4183C17.2142 10.9862 19.1565 10.1816 21.1818 10.1816V10.1816Z" stroke="black" stroke-width="2" stroke-linecap="round" stroke-linejoin="round"/>
<path d="M8.45456 11.4546H3.36365V26.7273H8.45456V11.4546Z" stroke="black" stroke-width="2" stroke-linecap="round" stroke-linejoin="round"/>
<path d="M5.9091 7.63632C7.31492 7.63632 8.45456 6.49668 8.45456 5.09086C8.45456 3.68505 7.31492 2.54541 5.9091 2.54541C4.50329 2.54541 3.36365 3.68505 3.36365 5.09086C3.36365 6.49668 4.50329 7.63632 5.9091 7.63632Z" stroke="black" stroke-width="2" stroke-linecap="round" stroke-linejoin="round"/>
</svg>
